<svg width="200" height="172" viewBox="0 0 200 172" fill="none" xmlns="http://www.w3.org/2000/svg">
<path d="M125.06 135.918C118.689 135.916 112.318 135.916 105.947 135.902C105.612 135.902 105.454 136.021 105.373 136.32C103.973 141.456 102.56 146.589 101.173 151.728C100.038 155.933 98.9358 160.146 97.8128 164.353C97.7348 164.645 97.6034 164.923 97.463 165.298C96.8903 164.815 96.339 164.376 95.8167 163.905C94.3605 162.591 92.9219 161.258 91.4661 159.944C89.4031 158.081 87.332 156.228 85.2623 154.373C83.6637 152.94 82.0614 151.511 80.4616 150.079C78.438 148.268 76.4152 146.456 74.3921 144.645C72.7768 143.199 71.1625 141.751 69.5459 140.307C67.9771 138.905 66.4132 137.497 64.8254 136.117C64.6495 135.964 64.3309 135.919 64.0783 135.919C57.196 135.909 50.3126 135.976 43.4318 135.872C41.3019 135.839 39.1649 135.422 37.0564 135.04C34.2775 134.538 31.663 133.497 29.1678 132.19C27.2013 131.16 25.3049 130 23.6336 128.52C22.4795 127.498 21.3142 126.48 20.2459 125.372C18.4483 123.506 16.9413 121.414 15.6622 119.154C14.5795 117.241 13.6781 115.252 13.0064 113.162C12.3329 111.067 11.7943 108.937 11.6395 106.731C11.5348 105.238 11.3946 103.742 11.3919 102.248C11.3709 90.9037 11.3798 79.5593 11.3879 68.1475C11.3964 68.08 11.4137 68.0533 11.4706 68.062C15.0742 68.0707 18.6211 68.0707 22.1798 68.0707C22.2086 67.9223 22.2378 67.8421 22.2377 67.7619C22.233 62.9497 22.2258 58.1374 22.2323 53.3088C22.2458 53.2925 22.2529 53.2507 22.3112 53.2652C23.7262 53.2798 25.083 53.2798 26.4701 53.2798C26.4701 53.6203 26.4701 53.875 26.4701 54.1297C26.4701 70.4842 26.465 86.8388 26.4825 103.193C26.4835 104.187 26.5769 105.199 26.7742 106.173C28.5312 114.841 35.8551 120.809 44.6897 120.809C53.4466 120.81 62.2035 120.818 70.9604 120.792C71.6142 120.79 72.0722 120.99 72.536 121.413C77.7457 126.159 82.9679 130.891 88.1878 135.625C88.9015 136.272 89.6214 136.913 90.4468 137.654C90.4468 131.945 90.4468 126.393 90.4468 120.847C105.643 120.847 120.782 120.847 135.94 120.847C135.94 122.181 135.94 123.478 135.939 124.774C135.937 124.772 135.932 124.771 135.873 124.777C132.273 124.782 128.733 124.782 125.097 124.782C125.097 126.372 125.102 127.858 125.096 129.343C125.087 131.533 125.07 133.722 125.058 135.913C125.059 135.915 125.06 135.918 125.06 135.918Z" fill="#DA0902"/>
<path d="M76.3551 9.46773C102.606 9.46857 128.858 9.44727 155.109 9.49194C159.512 9.49943 163.78 10.4214 167.847 12.1765C170.589 13.3596 173.139 14.8715 175.463 16.7344C178.667 19.3023 181.302 22.3827 183.367 25.9372C185.062 28.8565 186.336 31.9579 187.036 35.2618C187.381 36.8899 187.656 38.5619 187.696 40.2204C187.817 45.3696 187.811 50.5219 187.842 55.7429C187.83 55.813 187.791 55.8242 187.735 55.8231C183.533 55.8207 179.386 55.8271 175.239 55.8084C174.715 55.8061 174.543 55.9603 174.548 56.4957C174.574 59.3473 174.566 62.1992 174.568 65.0722C174.565 65.0933 174.556 65.1348 174.498 65.1177C173.893 65.1007 173.346 65.1007 172.763 65.1007C172.763 64.7821 172.763 64.5496 172.763 64.3171C172.763 57.067 172.783 49.8167 172.744 42.5668C172.736 41.2788 172.598 39.9658 172.319 38.7091C170.483 30.4435 163.14 24.5928 154.679 24.5927C124.231 24.5922 93.7829 24.5925 63.3347 24.5925C63.0682 24.5925 62.8018 24.5925 62.5405 24.5925C62.5405 23.6248 62.5405 22.7529 62.5364 21.8794C62.5323 21.8777 62.5274 21.885 62.5876 21.8847C67.1745 21.8843 71.7011 21.8843 76.2811 21.8843C76.2811 17.7497 76.2811 13.6684 76.3008 9.558C76.332 9.5085 76.3436 9.48811 76.3551 9.46773Z" fill="#48A700"/>
<path d="M187.848 55.8022C188.436 55.7915 189.006 55.7915 189.642 55.7915C189.642 56.0962 189.642 56.3453 189.642 56.5945C189.642 73.7575 189.648 90.9205 189.636 108.083C189.634 110.798 189.111 113.44 188.382 116.05C187.813 118.084 187.036 120.026 186.077 121.901C184.981 124.044 183.653 126.028 182.131 127.897C180.012 130.498 177.53 132.673 174.747 134.522C171.436 136.721 167.839 138.259 163.958 139.095C162.534 139.401 161.077 139.569 159.627 139.739C158.727 139.845 157.814 139.872 156.907 139.872C146.574 139.881 136.242 139.878 125.909 139.878C125.656 139.878 125.403 139.878 125.064 139.878C125.064 138.577 125.064 137.307 125.062 135.978C125.06 135.918 125.06 135.915 125.119 135.903C128.743 135.892 132.309 135.892 135.933 135.892C135.933 132.126 135.933 128.448 135.933 124.771C135.933 124.771 135.938 124.772 135.999 124.774C143.261 124.779 150.463 124.784 157.664 124.775C158.236 124.774 158.813 124.709 159.378 124.615C163.786 123.874 167.461 121.812 170.349 118.398C172.947 115.327 174.514 111.768 174.534 107.738C174.604 93.5372 174.558 79.3358 174.556 65.1347C174.556 65.1347 174.565 65.0932 174.624 65.0885C178.88 65.0822 183.078 65.0774 187.276 65.0845C187.643 65.0851 187.818 64.997 187.816 64.5885C187.798 61.6671 187.797 58.7456 187.791 55.8241C187.791 55.8241 187.83 55.8129 187.848 55.8022Z" fill="#FF6519"/>
<path d="M76.3498 9.40808C76.3434 9.4881 76.3318 9.50849 76.2448 9.55766C71.6308 9.58644 67.0922 9.58644 62.5271 9.58644C62.5271 13.7594 62.5271 17.8222 62.5271 21.885C62.5271 21.885 62.5321 21.8777 62.4756 21.881C55.0452 21.8842 47.6711 21.8833 40.2971 21.8843C37.2183 21.8847 34.2914 22.5544 31.6201 24.092C25.9795 27.3386 22.6737 32.2115 22.306 38.7296C22.0337 43.5556 22.2532 48.4094 22.2536 53.2508C22.2536 53.2508 22.2465 53.2926 22.1804 53.2847C18.7278 53.271 15.3414 53.2715 11.955 53.2521C11.4961 53.2495 11.3749 53.4279 11.3801 53.8586C11.3989 55.4146 11.3847 56.9708 11.3881 58.5269C11.395 61.7024 11.4054 64.8779 11.4144 68.0534C11.4144 68.0534 11.3971 68.0801 11.3837 68.0887C9.99014 68.0972 8.61 68.0972 7.16128 68.0972C7.16128 67.7856 7.16128 67.5368 7.16128 67.288C7.16128 57.7776 7.11547 48.2669 7.19689 38.7572C7.21487 36.6569 7.56548 34.5372 7.97249 32.4678C8.55387 29.5118 9.6808 26.7271 11.1231 24.0784C12.2151 22.0731 13.4744 20.1783 14.9943 18.4723C15.8971 17.459 16.8313 16.4686 17.8099 15.5289C19.6286 13.7824 21.6405 12.2703 23.8806 11.1164C25.7267 10.1655 27.6034 9.22812 29.5577 8.54702C31.3915 7.90795 33.3338 7.55611 35.2485 7.18048C37.6457 6.71019 40.0852 6.77773 42.5169 6.77941C53.5114 6.78698 64.506 6.78272 75.5005 6.78272C75.7534 6.78272 76.0064 6.78272 76.3448 6.78272C76.3448 7.65994 76.3448 8.5042 76.3498 9.40808Z" fill="#5C2CDF"/>
<path d="M11.4711 68.062C11.4053 64.8778 11.395 61.7023 11.388 58.5268C11.3846 56.9707 11.3988 55.4144 11.38 53.8585C11.3748 53.4278 11.496 53.2494 11.9549 53.252C15.3413 53.2713 18.7278 53.2709 22.1668 53.3009C22.2264 58.1374 22.2336 62.9496 22.2383 67.7619C22.2384 67.8421 22.2092 67.9223 22.1804 68.0706C18.6216 68.0706 15.0748 68.0706 11.4711 68.062Z" fill="#441A54"/>
<path d="M135.873 124.777C135.933 128.448 135.933 132.126 135.933 135.892C132.309 135.892 128.743 135.892 125.117 135.901C125.071 133.722 125.087 131.533 125.096 129.343C125.102 127.858 125.097 126.372 125.097 124.782C128.734 124.782 132.274 124.782 135.873 124.777Z" fill="#F2A978"/>
<path d="M62.5876 21.8846C62.5273 17.8222 62.5273 13.7594 62.5273 9.58643C67.0924 9.58643 71.631 9.58643 76.2253 9.58676C76.2811 13.6684 76.2811 17.7497 76.2811 21.8843C71.7011 21.8843 67.1745 21.8843 62.5876 21.8846Z" fill="#DF9AF6"/>
<path d="M187.735 55.8231C187.796 58.7457 187.798 61.6672 187.815 64.5886C187.818 64.9971 187.642 65.0851 187.275 65.0845C183.078 65.0775 178.88 65.0823 174.626 65.0675C174.565 62.1992 174.574 59.3473 174.547 56.4956C174.542 55.9602 174.714 55.806 175.238 55.8084C179.385 55.8271 183.532 55.8206 187.735 55.8231Z" fill="#015250"/>
<path d="M79.333 68.8919C82.5039 67.8789 85.7084 67.4628 88.9821 67.4095C92.7692 67.3479 96.4974 67.6712 100.11 68.8612C104.658 70.3591 108.269 73.0276 110.444 77.3993C111.733 79.9892 112.308 82.7636 112.415 85.6449C112.539 88.9743 112.226 92.2386 110.939 95.349C108.917 100.236 105.209 103.277 100.292 104.932C96.0372 106.365 91.6454 106.65 87.1919 106.387C84.182 106.209 81.2367 105.724 78.4219 104.627C71.9741 102.114 68.3226 97.3746 67.375 90.5387C66.8599 86.8225 67.025 83.1426 68.2326 79.5648C69.9879 74.3646 73.6288 71.0259 78.6865 69.1225C78.8847 69.0479 79.0861 68.9816 79.333 68.8919ZM86.848 78.3855C85.0879 79.0999 83.9325 80.4017 83.2507 82.1429C82.3403 84.468 82.2789 86.8887 82.6296 89.3113C83.145 92.8717 85.0526 95.6184 89.1105 95.9226C92.0943 96.1462 95.0067 95.0663 96.2644 91.7677C97.4894 88.555 97.4641 85.2652 96.2672 82.0401C95.5011 79.9757 93.983 78.6201 91.8274 78.0992C90.1897 77.7035 88.5433 77.7698 86.848 78.3855Z" fill="#3E3E3D"/>
<path d="M114.828 80.1101C116.828 73.7535 121.322 70.1827 127.506 68.4765C129.894 67.8179 132.336 67.5126 134.809 67.4274C138.761 67.2914 142.67 67.5453 146.471 68.7291C151.219 70.208 154.992 72.9115 157.251 77.4677C158.409 79.8039 158.985 82.3047 159.155 84.8905C159.387 88.4504 159.096 91.9532 157.729 95.2974C155.715 100.22 151.995 103.272 147.054 104.934C142.798 106.366 138.407 106.649 133.954 106.386C130.944 106.208 127.998 105.724 125.184 104.624C118.846 102.148 115.177 97.5104 114.186 90.7806C113.659 87.2042 113.775 83.651 114.828 80.1101ZM135.482 95.8685C139.486 96.4134 142.511 94.3708 143.481 90.4679C143.965 88.5202 144.005 86.5472 143.725 84.5753C143.122 80.3172 140.543 77.5326 135.783 77.9104C132.992 78.1319 131.01 79.5206 130.041 82.1473C128.858 85.3532 128.875 88.6205 130.092 91.8104C131.001 94.1908 132.829 95.5301 135.482 95.8685Z" fill="#3E3E3D"/>
<path d="M40.2198 77.6349C42.852 77.2704 45.3691 76.7168 47.7176 75.5392C50.4875 74.1502 52.435 72.0284 53.5101 69.1171C53.6268 68.8012 53.7085 68.5793 54.1472 68.5821C57.8975 68.6053 61.6481 68.5953 65.3987 68.5966C65.4999 68.5967 65.6012 68.6125 65.7245 68.6229C65.7245 80.8078 65.7245 92.9579 65.7245 105.152C60.886 105.152 56.0414 105.152 51.1422 105.152C51.1422 97.9129 51.1422 90.6772 51.1422 83.293C47.3485 87.7423 42.4283 89.07 36.9248 89.1109C36.9248 85.3624 36.9248 81.6677 36.9248 77.9401C38.0075 77.8424 39.0857 77.7451 40.2198 77.6349Z" fill="#3E3E3D"/>
<path d="M107.051 63.458C105.055 62.9444 103.091 62.504 101.166 61.931C97.6987 60.8987 95.1512 58.8236 94.3334 55.1533C93.506 51.4398 94.0337 47.9846 96.8936 45.199C98.4291 43.7035 100.343 42.8897 102.416 42.4607C106.143 41.6896 109.86 41.692 113.501 42.8866C117.349 44.1488 119.797 46.7327 120.292 50.8339C120.894 55.8137 119.013 59.9238 113.746 61.7996C113.674 61.8252 113.601 61.8473 113.417 61.9075C115.408 63.7262 117.327 65.4798 119.246 67.2335C119.221 67.2784 119.196 67.3234 119.17 67.3684C115.147 66.0694 111.123 64.7705 107.051 63.458ZM115.39 54.1341C115.614 54.1341 115.837 54.1341 116.052 54.1341C116.052 53.0061 116.052 51.9718 116.052 50.9294C114.938 50.9294 113.865 50.9294 112.767 50.9294C112.767 52.0046 112.767 53.0385 112.767 54.1341C113.617 54.1341 114.442 54.1341 115.39 54.1341ZM108.869 53.2967C108.869 52.515 108.869 51.7334 108.869 50.9231C107.729 50.9231 106.657 50.9231 105.564 50.9231C105.564 52.0078 105.564 53.0571 105.564 54.0957C106.686 54.0957 107.763 54.0957 108.869 54.0957C108.869 53.8459 108.869 53.6344 108.869 53.2967ZM101.569 54.1341C101.72 54.045 102.001 53.9602 102.004 53.8661C102.036 52.8934 102.024 51.9191 102.024 50.926C100.878 50.926 99.8049 50.926 98.7032 50.926C98.7032 51.9981 98.7032 53.0325 98.7032 54.1341C99.6269 54.1341 100.537 54.1341 101.569 54.1341Z" fill="#3F3F3E"/>
<path d="M50.0002 61.8025C47.1691 61.8025 44.402 61.8025 41.5869 61.8025C41.5869 55.9831 41.5869 50.1966 41.5869 44.3563C41.7618 44.3463 41.9465 44.3267 42.1311 44.3267C46.1793 44.3249 50.2282 44.2772 54.2753 44.341C57.3576 44.3896 60.0584 45.4046 61.8489 48.0791C64.8381 52.544 63.4997 60.7797 55.4868 61.6722C53.6966 61.8716 51.8726 61.7671 50.0002 61.8025ZM48.7423 54.9647C48.7423 55.5349 48.7423 56.1051 48.7423 56.6553C50.125 56.6553 51.4592 56.8008 52.7485 56.6222C54.8301 56.3339 55.7314 55.2011 55.796 53.1833C55.8557 51.3174 55.0237 49.9869 53.2628 49.6429C51.8061 49.3584 50.286 49.3992 48.7423 49.2922C48.7423 51.2614 48.7423 53.0493 48.7423 54.9647Z" fill="#3F3F3E"/>
<path d="M93.4581 56.7663C93.0231 59.9325 90.8446 61.2396 88.123 61.9094C85.5546 62.5415 82.9385 62.4981 80.3215 62.2485C78.0483 62.0316 75.8397 61.5264 73.6842 60.7798C73.4261 60.6904 73.1723 60.5884 72.9047 60.4878C72.8231 58.7297 72.7422 56.9885 72.6618 55.2573C73.7666 55.6568 74.8529 56.1133 75.9763 56.4428C78.5709 57.2037 81.2267 57.4595 83.9219 57.1951C84.3164 57.1563 84.7258 57.0554 85.0781 56.8815C85.2857 56.779 85.5014 56.4822 85.5142 56.2612C85.5246 56.0813 85.2726 55.7745 85.0784 55.715C84.4544 55.5236 83.8086 55.3823 83.1615 55.2909C81.2074 55.015 79.2388 54.8293 77.2955 54.4943C76.1198 54.2917 75.0266 53.7826 74.138 52.9333C71.9093 50.8034 72.2427 46.9654 74.8154 45.2749C76.3325 44.2781 78.064 43.9421 79.8287 43.7754C83.799 43.4005 87.7281 43.7331 91.6238 44.5417C91.8081 44.58 91.988 44.639 92.209 44.699C92.2832 46.3826 92.357 48.0569 92.4285 49.6783C90.7491 49.3471 89.1006 48.8854 87.4236 48.7276C85.5303 48.5494 83.6113 48.6421 81.7034 48.6255C81.5601 48.6242 81.3839 48.651 81.2791 48.735C81.0202 48.9423 80.7939 49.1905 80.5545 49.4223C80.7961 49.6552 81.0122 50.0505 81.2837 50.0934C82.5819 50.2982 83.8983 50.3844 85.2024 50.5568C86.6103 50.7429 88.0434 50.8576 89.4093 51.2172C91.9887 51.8962 93.6627 53.4696 93.4581 56.7663Z" fill="#3F3F3E"/>
<path d="M148.849 44.325C153.211 44.325 157.51 44.325 161.845 44.325C161.845 45.83 161.845 47.2667 161.845 48.7664C158.054 48.7664 154.274 48.7664 150.45 48.7664C150.45 49.4988 150.45 50.1699 150.45 50.9178C153.888 50.9178 157.344 50.9178 160.834 50.9178C160.834 52.263 160.834 53.5329 160.834 54.8771C157.384 54.8771 153.926 54.8771 150.438 54.8771C150.438 55.6421 150.438 56.3332 150.438 57.0717C154.293 57.0717 158.119 57.0717 161.993 57.0717C161.993 58.6578 161.993 60.1972 161.993 61.7697C155.753 61.7697 149.521 61.7697 143.245 61.7697C143.245 55.9763 143.245 50.1898 143.245 44.325C145.091 44.325 146.938 44.325 148.849 44.325Z" fill="#3F3F3E"/>
<path d="M122.259 44.3252C124.278 44.3252 126.235 44.3252 128.282 44.3252C128.282 44.5955 128.282 44.82 128.282 45.0445C128.282 47.6674 128.256 50.2906 128.298 52.9128C128.311 53.7541 128.449 54.605 128.632 55.4289C128.838 56.3604 129.464 56.9666 130.428 57.0932C131.076 57.1782 131.747 57.2267 132.392 57.153C133.475 57.0291 134.169 56.3661 134.393 55.2958C134.532 54.6341 134.636 53.952 134.643 53.2779C134.671 50.5487 134.655 47.8191 134.655 45.0896C134.655 44.8587 134.655 44.6278 134.655 44.3688C137.096 44.3688 139.491 44.3688 141.934 44.3688C141.934 45.1759 141.934 45.94 141.934 46.7042C141.934 49.0924 141.934 51.4807 141.934 53.869C141.934 58.5872 140.05 61.0477 135.446 62.0024C132.335 62.6474 129.184 62.5952 126.113 61.6679C123.481 60.8734 121.646 59.2613 121.169 56.4098C121.11 56.0546 121.083 55.6899 121.082 55.3296C121.076 51.8112 121.078 48.2927 121.08 44.7743C121.08 44.649 121.099 44.5236 121.115 44.3252C121.483 44.3252 121.839 44.3252 122.259 44.3252Z" fill="#3F3F3E"/>
<path d="M71.2279 55.4137C71.2279 57.5631 71.2279 59.6486 71.2279 61.7683C68.8044 61.7683 66.4312 61.7683 64.0205 61.7683C64.0205 55.9698 64.0205 50.1993 64.0205 44.3767C66.403 44.3767 68.7753 44.3767 71.2279 44.3767C71.2279 48.0318 71.2279 51.6908 71.2279 55.4137Z" fill="#40403F"/>
<path d="M119.342 67.3608C119.374 67.3565 119.386 67.368 119.398 67.3795C119.373 67.3785 119.347 67.3775 119.342 67.3608Z" fill="#3F3F3E"/>
</svg>
