<svg width="200" height="76" viewBox="0 0 200 76" fill="none" xmlns="http://www.w3.org/2000/svg">
<path d="M66.7789 0.453083C62.159 1.62906 57.9591 7.17293 57.9591 12.0448C57.9591 17.0007 61.151 20.4446 67.6189 22.4606C73.1628 24.1406 75.3468 26.5765 73.8348 29.4324C72.7428 31.5324 67.5349 31.4484 64.007 29.2644C62.495 28.3405 60.983 27.5845 60.563 27.5845C60.227 27.5845 59.2191 29.0964 58.3791 30.9444C56.9511 34.2203 56.9511 34.3883 58.3791 35.9843C61.151 39.0922 69.2149 40.2682 74.8428 38.4202C81.0586 36.3203 84.6706 30.1044 83.4946 23.8046C82.8226 19.9406 79.7987 17.0847 74.9268 15.8247C70.1389 14.4808 67.8709 12.7168 68.2069 10.4489C68.3749 9.02089 69.0469 8.6849 71.8188 8.6849C73.6668 8.6849 76.0187 9.02089 77.0267 9.35688C78.5387 9.94487 79.1267 9.60888 80.1347 7.50892C82.3186 3.39302 81.8986 2.55304 77.1107 1.12506C72.7428 -0.134907 69.9709 -0.302902 66.7789 0.453083Z" fill="#060606"/>
<path d="M99.9574 1.1251C96.2615 2.80506 93.6576 5.24101 90.8016 9.52491C88.9537 12.4648 88.6177 13.7248 88.6177 19.6047C88.6177 25.4846 88.9537 26.7445 90.8856 29.7685C95.2535 36.4883 100.377 39.3442 108.441 39.3442C112.641 39.3442 117.597 37.9163 117.597 36.7403C117.597 36.3203 116.421 34.8923 114.993 33.4644C112.977 31.6164 111.549 30.9444 109.197 30.9444C99.6215 30.9444 95.0015 18.1767 102.057 11.1209C104.745 8.43294 111.297 8.26494 114.489 10.8689C118.437 13.8928 119.277 21.7046 116.253 26.4925C115.581 27.5005 115.077 28.5925 115.077 28.8445C115.077 29.0965 117.513 29.2645 120.537 29.2645C125.241 29.2645 126.081 29.0125 126.921 27.4165C128.433 24.6446 128.181 14.2288 126.585 11.2049C124.905 7.92895 120.453 3.47705 117.261 1.79708C113.565 -0.134872 103.653 -0.470863 99.9574 1.1251Z" fill="#060606"/>
<path d="M0 19.0177C0 29.2654 0.335993 37.7492 0.671987 38.0012C1.09198 38.2532 6.21588 38.0852 12.0118 37.7492C21.5036 37.1612 23.0155 36.8253 26.0395 34.8093C31.8354 30.9454 32.9274 28.4254 32.5074 19.3536C32.1714 12.3818 31.9194 11.1218 29.7354 8.0979C26.0395 2.89002 23.0995 1.79804 10.7518 1.12606L0 0.538071V19.0177ZM17.7237 11.0378C21.5876 13.6418 22.8476 16.2457 22.4276 21.1176C21.9236 26.5775 19.4876 29.0974 14.2797 29.4334L10.4998 29.6854L10.2478 19.3536L9.9958 9.10588H12.4318C13.7757 9.10588 16.1277 9.94586 17.7237 11.0378Z" fill="#060606"/>
<path d="M40.3198 19.1845V37.6641H45.3597H50.3996V19.1845V0.704895H45.3597H40.3198V19.1845Z" fill="#060606"/>
<path d="M136.75 1.29378C135.406 1.62978 135.238 3.05774 135.238 15.4055C135.238 29.9371 135.742 32.3731 139.186 35.733C143.302 39.6809 155.649 40.4369 161.445 37.077C166.821 33.969 167.577 31.3651 167.577 15.8255V1.96577L162.873 1.71377L158.169 1.46178L157.665 7.17365C157.329 10.2816 157.077 16.1614 157.077 20.1934C157.077 27.8372 156.405 29.4331 152.793 30.5251C150.693 31.1971 146.494 29.6011 145.654 27.7532C145.318 26.9132 144.898 20.5293 144.646 13.4735L144.31 0.705795L141.202 0.789795C139.522 0.873791 137.506 1.04179 136.75 1.29378Z" fill="#060606"/>
<path d="M176.145 1.29372C175.809 1.54572 175.557 10.1135 175.557 20.1933V38.5049H187.82H200L199.748 34.473L199.496 30.5251L193.448 30.1051C187.064 29.6851 185.3 28.7611 185.804 26.2412C186.056 24.8972 186.98 24.6452 192.188 24.3932L198.236 24.1412V20.0253V15.9094L192.188 15.6574L186.056 15.4054V12.4655V9.52554L193.028 9.27354L199.916 9.02155V4.90564V0.705734H188.324C181.941 0.705734 176.397 0.957729 176.145 1.29372Z" fill="#060606"/>
<path d="M115.917 31.6167C115.917 31.9527 117.849 34.1367 120.117 36.4046L124.317 40.5205V35.7326V30.9447H120.117C117.849 30.9447 115.917 31.2807 115.917 31.6167Z" fill="#060606"/>
<path d="M91.1381 47.7442C92.4821 49.0882 93.826 50.2642 94.246 50.2642C94.582 50.2642 94.918 49.0882 94.918 47.7442C94.918 45.3923 94.666 45.2243 91.8101 45.2243H88.7021L91.1381 47.7442Z" fill="#060606"/>
<path d="M149.097 48.584C145.401 49.676 141.286 54.1279 140.194 57.9918C137.758 67.3156 143.89 75.4634 153.549 75.4634C158.421 75.4634 159.597 74.4554 159.597 70.3395V67.2316L157.161 68.4075C152.625 70.6755 147.921 68.1555 147.249 63.1157C146.913 60.4277 147.249 59.3357 149.097 57.1518C151.617 54.1279 153.465 53.8759 157.077 55.7238L159.597 57.0678V53.7079C159.597 51.9439 159.093 50.0959 158.589 49.592C156.909 48.248 151.953 47.744 149.097 48.584Z" fill="#060606"/>
<path d="M0.839844 62.0241V75.6318L4.03178 75.1278C5.71175 74.8759 9.65967 74.4559 12.8516 74.2039C22.4274 73.2799 26.3753 67.988 24.0234 59.0002C21.6714 50.1804 20.4115 49.3404 9.07168 48.7524L0.839844 48.3324V62.0241ZM13.8596 55.8083C16.7155 57.6562 18.0595 62.1921 16.6315 65.1321C15.5396 67.4 10.4997 69.92 9.07168 68.996C8.65169 68.828 8.39969 65.4681 8.39969 61.5202C8.39969 54.9683 8.48369 54.4643 10.0797 54.4643C11.0876 54.4643 12.7676 55.0523 13.8596 55.8083Z" fill="#060606"/>
<path d="M29.1476 49.1726C28.8116 49.4246 28.5596 55.3045 28.5596 62.1923V74.624H36.5394H44.5193V72.1881C44.5193 70.0041 44.1833 69.7521 41.0753 69.3321C37.1274 68.8282 35.6994 67.7362 36.3714 65.8882C36.7914 64.9642 38.0514 64.5442 40.7393 64.5442C44.5193 64.5442 44.6033 64.4603 44.3513 62.1923C44.0993 60.1763 43.6793 59.9244 40.5713 59.6724C37.0434 59.4204 35.6994 58.0764 36.6234 55.8084C36.8754 55.0525 38.5554 54.4645 40.5713 54.2965C43.8473 54.0445 44.0993 53.8765 44.3513 51.2725L44.6033 48.5846H37.1274C33.0115 48.5846 29.3996 48.8366 29.1476 49.1726Z" fill="#060606"/>
<path d="M50.1466 49.1725C49.8106 49.4245 49.5586 55.3884 49.5586 62.3602V75.1279L52.8345 74.7919L56.1105 74.4559L56.6145 67.8201C56.9504 64.2082 57.5384 61.1842 57.8744 61.1842C58.2944 61.1842 59.6384 62.7802 60.8984 64.7122C66.3583 72.944 68.2062 74.6239 72.0702 74.6239H75.5981V61.6042V48.5845H72.3221H69.1302L68.5422 56.1444C68.1222 60.5123 67.6182 63.5362 67.1142 63.2002C66.6943 62.9482 64.4263 59.9243 62.1583 56.5643C59.8064 53.1204 57.2024 49.9285 56.3625 49.4245C54.5145 48.5005 50.9866 48.3325 50.1466 49.1725Z" fill="#060606"/>
<path d="M80.6392 56.3118C80.7232 66.9795 81.6471 71.1794 84.5031 73.6154C86.603 75.4633 87.443 75.6313 92.9869 75.2953C98.3628 75.0434 99.3708 74.7074 101.387 72.6914C103.655 70.4235 103.739 70.0875 103.991 59.4197L104.327 48.5L100.631 48.7519L97.0188 49.0039L96.5988 58.4957C96.1789 68.1555 95.6749 69.5835 92.3989 69.5835C89.123 69.5835 88.619 68.1555 88.199 58.4957L87.779 49.0039L84.2511 48.7519L80.6392 48.5V56.3118Z" fill="#060606"/>
<path d="M109.198 61.6034V74.6231H112.978H116.758V66.9792C116.758 62.6113 117.094 59.5874 117.514 59.8394C117.934 60.1754 120.118 63.1153 122.218 66.4752C127.93 75.1271 127.93 75.1271 131.878 74.7911L135.238 74.4551V61.4354V48.4996L131.71 48.7516L128.098 49.0036L127.678 56.9835L127.258 64.9633L123.982 59.5034C117.85 49.4236 117.01 48.5836 112.894 48.5836H109.198V61.6034Z" fill="#060606"/>
<path d="M163.798 61.6043V74.708L167.326 74.456L170.77 74.204V61.6043L170.686 49.0046L167.242 48.7526L163.798 48.5006V61.6043Z" fill="#060606"/>
<path d="M178.244 61.5203C175.808 68.6601 173.876 74.624 173.876 74.792C173.876 74.96 175.388 74.96 177.32 74.792C179.924 74.54 180.848 74.036 181.436 72.44C182.108 70.6761 182.78 70.4241 186.896 70.4241C191.012 70.4241 191.684 70.6761 192.524 72.524C193.28 74.204 194.036 74.624 196.724 74.624C200.755 74.624 200.755 74.12 196.892 63.2842C195.212 58.6643 193.448 53.7084 192.944 52.1965C191.936 49.5085 189.92 48.5846 184.796 48.5846C182.612 48.5846 182.36 49.0885 178.244 61.5203ZM190.172 64.6282C189.668 65.4682 185.384 65.6362 184.628 64.8802C184.124 64.4602 185.972 57.6564 186.98 55.9764C187.316 55.3884 188.24 56.9004 189.164 59.4203C190.004 61.9403 190.424 64.2082 190.172 64.6282Z" fill="#060606"/>
</svg>
