<svg width="150" height="160" viewBox="0 0 150 160" fill="none" xmlns="http://www.w3.org/2000/svg">
<path d="M31.5 96H60.4406C61.8844 92.9333 63.5578 90.0667 65.4609 87.4C67.3641 84.7333 69.4969 82.2667 71.8594 80H31.5V96ZM31.5 128H55.7156C55.3219 125.333 55.125 122.667 55.125 120C55.125 117.333 55.3219 114.667 55.7156 112H31.5V128ZM15.75 160C11.4188 160 7.71094 158.433 4.62656 155.3C1.54219 152.167 0 148.4 0 144V16C0 11.6 1.54219 7.83333 4.62656 4.7C7.71094 1.56667 11.4188 0 15.75 0H78.75L126 48V66.4C123.506 65.6 120.947 65 118.322 64.6C115.697 64.2 113.006 64 110.25 64V56H70.875V16H15.75V144H60.4406C61.8844 147.067 63.5578 149.933 65.4609 152.6C67.3641 155.267 69.4969 157.733 71.8594 160H15.75ZM138.108 91.7C145.786 99.5 149.625 108.933 149.625 120C149.625 131.067 145.786 140.5 138.108 148.3C130.43 156.1 121.144 160 110.25 160C99.3563 160 90.0703 156.1 82.3922 148.3C74.7141 140.5 70.875 131.067 70.875 120C70.875 108.933 74.7141 99.5 82.3922 91.7C90.0703 83.9 99.3563 80 110.25 80C121.144 80 130.43 83.9 138.108 91.7ZM113.892 142.5C114.877 141.5 115.369 140.267 115.369 138.8C115.369 137.333 114.877 136.1 113.892 135.1C112.908 134.1 111.694 133.6 110.25 133.6C108.806 133.6 107.592 134.1 106.608 135.1C105.623 136.1 105.131 137.333 105.131 138.8C105.131 140.267 105.623 141.5 106.608 142.5C107.592 143.5 108.806 144 110.25 144C111.694 144 112.908 143.5 113.892 142.5ZM106.706 128.8H113.794V126.8C113.794 125.333 114.188 124.033 114.975 122.9C115.763 121.767 116.681 120.667 117.731 119.6C119.569 118 121.013 116.467 122.062 115C123.113 113.533 123.638 111.467 123.638 108.8C123.638 104.933 122.391 101.833 119.897 99.5C117.403 97.1667 114.188 96 110.25 96C107.231 96 104.508 96.9 102.08 98.7C99.6516 100.5 97.9125 102.933 96.8625 106L103.163 108.8C103.556 107.2 104.377 105.8 105.623 104.6C106.87 103.4 108.413 102.8 110.25 102.8C112.219 102.8 113.761 103.3 114.877 104.3C115.992 105.3 116.55 106.8 116.55 108.8C116.55 110.267 116.156 111.5 115.369 112.5C114.581 113.5 113.663 114.533 112.613 115.6C111.825 116.4 111.005 117.2 110.152 118C109.298 118.8 108.544 119.733 107.888 120.8C107.494 121.6 107.198 122.4 107.002 123.2C106.805 124 106.706 124.933 106.706 126V128.8Z" fill="url(#paint0_linear_516_868)"/>
<defs>
<linearGradient id="paint0_linear_516_868" x1="74.8125" y1="0" x2="74.8125" y2="160" gradientUnits="userSpaceOnUse">
<stop stop-color="#A1672A"/>
<stop offset="0.341346" stop-color="#CF9A30"/>
</linearGradient>
</defs>
</svg>
