<svg width="32" height="32" viewBox="0 0 32 32" fill="none" xmlns="http://www.w3.org/2000/svg">
<g clip-path="url(#clip0_75_870)">
<path d="M22.667 16.6667C22.667 17.1971 22.4563 17.7058 22.0812 18.0809C21.7061 18.456 21.1974 18.6667 20.667 18.6667H11.3337C10.8032 18.6667 10.2945 18.456 9.91945 18.0809C9.54437 17.7058 9.33366 17.1971 9.33366 16.6667C9.33366 16.1363 9.54437 15.6276 9.91945 15.2525C10.2945 14.8774 10.8032 14.6667 11.3337 14.6667H20.667C21.1974 14.6667 21.7061 14.8774 22.0812 15.2525C22.4563 15.6276 22.667 16.1363 22.667 16.6667V16.6667ZM16.667 21.3334H11.3337C10.8032 21.3334 10.2945 21.5441 9.91945 21.9192C9.54437 22.2942 9.33366 22.8029 9.33366 23.3334C9.33366 23.8638 9.54437 24.3725 9.91945 24.7476C10.2945 25.1226 10.8032 25.3334 11.3337 25.3334H16.667C17.1974 25.3334 17.7061 25.1226 18.0812 24.7476C18.4563 24.3725 18.667 23.8638 18.667 23.3334C18.667 22.8029 18.4563 22.2942 18.0812 21.9192C17.7061 21.5441 17.1974 21.3334 16.667 21.3334V21.3334ZM29.3337 10.876V24.6667C29.3315 26.611 28.5582 28.475 27.1834 29.8498C25.8086 31.2246 23.9446 31.9979 22.0003 32H10.0003C8.05605 31.9979 6.19202 31.2246 4.81721 29.8498C3.44241 28.475 2.66911 26.611 2.66699 24.6667V7.33336C2.66911 5.38909 3.44241 3.52506 4.81721 2.15025C6.19202 0.775444 8.05605 0.00214717 10.0003 2.96146e-05H18.4577C19.4211 -0.00271779 20.3755 0.185723 21.2656 0.554436C22.1556 0.923148 22.9637 1.4648 23.643 2.14803L27.1857 5.6907C27.8688 6.37005 28.4103 7.17815 28.779 8.06821C29.1478 8.95827 29.3363 9.91262 29.3337 10.876V10.876ZM25.3337 24.6667V12H20.0003C19.2931 12 18.6148 11.7191 18.1147 11.219C17.6146 10.7189 17.3337 10.0406 17.3337 9.33336V4.00003H10.0003C9.11627 4.00003 8.26842 4.35122 7.6433 4.97634C7.01818 5.60146 6.66699 6.44931 6.66699 7.33336V24.6667C6.66699 25.5508 7.01818 26.3986 7.6433 27.0237C8.26842 27.6488 9.11627 28 10.0003 28H22.0003C22.8844 28 23.7322 27.6488 24.3573 27.0237C24.9825 26.3986 25.3337 25.5508 25.3337 24.6667Z" fill="white"/>
</g>
<defs>
<clipPath id="clip0_75_870">
<rect width="32" height="32" fill="white"/>
</clipPath>
</defs>
</svg>
