<svg width="32" height="32" viewBox="0 0 32 32" fill="none" xmlns="http://www.w3.org/2000/svg">
<g clip-path="url(#clip0_75_876)">
<path d="M16 0C7.16344 0 0 7.16344 0 16C0 24.8366 7.16344 32 16 32C24.8366 32 32 24.8366 32 16C31.9904 7.16737 24.8326 0.0095625 16 0ZM16 28C9.37256 28 4 22.6274 4 16C4 9.37256 9.37256 4 16 4C22.6274 4 28 9.37256 28 16C27.9926 22.6244 22.6244 27.9926 16 28Z" fill="white"/>
<path d="M16 20.1214C17.1046 20.1214 18 19.226 18 18.1214V8.78809C18 7.68352 17.1046 6.78809 16 6.78809C14.8954 6.78809 14 7.68352 14 8.78809V18.1214C14 19.226 14.8954 20.1214 16 20.1214Z" fill="white"/>
<path d="M16.0068 25.3333C17.1114 25.3333 18.0068 24.4378 18.0068 23.3333C18.0068 22.2287 17.1114 21.3333 16.0068 21.3333C14.9023 21.3333 14.0068 22.2287 14.0068 23.3333C14.0068 24.4378 14.9023 25.3333 16.0068 25.3333Z" fill="white"/>
</g>
<defs>
<clipPath id="clip0_75_876">
<rect width="32" height="32" fill="white"/>
</clipPath>
</defs>
</svg>
