<svg width="160" height="139" viewBox="0 0 160 139" fill="none" xmlns="http://www.w3.org/2000/svg">
<path d="M0 139L80 0L160 139H0ZM25.0909 124.368H134.909L80 29.2632L25.0909 124.368ZM85.1818 114.949C86.5758 113.547 87.2727 111.81 87.2727 109.737C87.2727 107.664 86.5758 105.927 85.1818 104.524C83.7879 103.122 82.0606 102.421 80 102.421C77.9394 102.421 76.2121 103.122 74.8182 104.524C73.4242 105.927 72.7273 107.664 72.7273 109.737C72.7273 111.81 73.4242 113.547 74.8182 114.949C76.2121 116.352 77.9394 117.053 80 117.053C82.0606 117.053 83.7879 116.352 85.1818 114.949ZM72.7273 95.1053H87.2727V58.5263H72.7273V95.1053Z" fill="url(#paint0_linear_516_866)"/>
<defs>
<linearGradient id="paint0_linear_516_866" x1="80" y1="0" x2="80" y2="139" gradientUnits="userSpaceOnUse">
<stop stop-color="#A1672A"/>
<stop offset="0.341346" stop-color="#CF9A30"/>
</linearGradient>
</defs>
</svg>
