<svg width="32" height="32" viewBox="0 0 32 32" fill="none" xmlns="http://www.w3.org/2000/svg">
<g clip-path="url(#clip0_75_873)">
<path d="M27.1997 22.2273L27.1797 22.1993L25.693 20.1193C25.9413 19.866 26.1515 19.5781 26.317 19.2646C26.6382 18.6269 26.7746 17.9121 26.7107 17.201C26.6469 16.4899 26.3853 15.8108 25.9557 15.2406L23.921 12.4806C24.3367 12.1517 24.6776 11.7381 24.921 11.2673C25.2376 10.661 25.3781 9.97818 25.3265 9.29619C25.2749 8.6142 25.0333 7.9603 24.629 7.40858C24.5757 7.33392 18.933 1.31925 18.933 1.31925C18.5652 0.912957 18.117 0.587448 17.6168 0.363323C17.1167 0.139198 16.5754 0.0213385 16.0274 0.0172026C15.4793 0.0130667 14.9363 0.122745 14.4329 0.339296C13.9294 0.555847 13.4763 0.874555 13.1024 1.27525C13.1024 1.27525 7.4237 7.33392 7.36904 7.40858C6.96503 7.96042 6.72367 8.61439 6.67229 9.29638C6.62092 9.97837 6.76159 10.6611 7.07837 11.2673C7.32436 11.7417 7.66895 12.1582 8.08904 12.4886L6.05037 15.2886C5.64203 15.8484 5.39758 16.5109 5.34436 17.2018C5.29114 17.8927 5.43126 18.5848 5.74904 19.2006C5.92523 19.5333 6.14991 19.838 6.4157 20.1046L4.7997 22.2273C4.33046 22.9078 4.05623 23.7037 4.00669 24.5289C3.95714 25.354 4.13417 26.177 4.51861 26.9089C4.90305 27.6407 5.48028 28.2534 6.18785 28.6809C6.89541 29.1083 7.70639 29.3341 8.53304 29.3339H13.9997V30.0006C13.9997 30.531 14.2104 31.0397 14.5855 31.4148C14.9606 31.7899 15.4693 32.0006 15.9997 32.0006C16.5301 32.0006 17.0388 31.7899 17.4139 31.4148C17.789 31.0397 17.9997 30.531 17.9997 30.0006V29.3339H23.4664C24.293 29.3341 25.104 29.1083 25.8116 28.6809C26.5191 28.2534 27.0964 27.6407 27.4808 26.9089C27.8652 26.177 28.0423 25.354 27.9927 24.5289C27.9432 23.7037 27.6689 22.9078 27.1997 22.2273ZM23.9397 25.0486C23.8969 25.1369 23.8294 25.2108 23.7454 25.2615C23.6613 25.3121 23.5644 25.3373 23.4664 25.3339H8.53304C8.43521 25.337 8.33857 25.3117 8.25481 25.2611C8.17105 25.2105 8.10374 25.1367 8.06104 25.0486C8.01679 24.9772 7.9918 24.8956 7.98853 24.8117C7.98526 24.7278 8.00381 24.6445 8.04237 24.5699L10.497 21.3339H15.333C15.8635 21.3339 16.3722 21.1232 16.7473 20.7481C17.1223 20.3731 17.333 19.8644 17.333 19.3339C17.333 18.8035 17.1223 18.2948 16.7473 17.9197C16.3722 17.5446 15.8635 17.3339 15.333 17.3339H9.51037L12.421 13.3339H13.9997C14.5301 13.3339 15.0388 13.1232 15.4139 12.7481C15.789 12.3731 15.9997 11.8644 15.9997 11.3339C15.9997 10.8035 15.789 10.2948 15.4139 9.9197C15.0388 9.54463 14.5301 9.33392 13.9997 9.33392H11.021L15.9797 4.01392L20.9744 9.33392H20.5957C20.226 9.33389 19.8635 9.43637 19.5484 9.62995C19.2334 9.82354 18.9782 10.1007 18.8112 10.4305C18.6442 10.7604 18.5719 11.1301 18.6024 11.4986C18.6328 11.8671 18.7648 12.2199 18.9837 12.5179L22.5184 17.3339C22.1642 17.3601 21.8235 17.4802 21.5311 17.6817C21.2387 17.8832 21.0052 18.1589 20.8546 18.4805C20.7041 18.8021 20.6419 19.158 20.6744 19.5116C20.7069 19.8653 20.833 20.2038 21.0397 20.4926L23.9077 24.5019C23.964 24.5809 23.9965 24.6744 24.0012 24.7713C24.0059 24.8682 23.9827 24.9645 23.9344 25.0486H23.9397Z" fill="white"/>
</g>
<defs>
<clipPath id="clip0_75_873">
<rect width="32" height="32" fill="white"/>
</clipPath>
</defs>
</svg>
