<svg width="178" height="171" viewBox="0 0 178 171" fill="none" xmlns="http://www.w3.org/2000/svg">
<path d="M51.9167 171V136.8H0L28.5542 85.5H14.8333L66.75 0L89 36.765L111.25 0L163.167 85.5H149.446L178 136.8H126.083V171H96.4167V136.8H81.5833V171H51.9167ZM124.044 119.7H150.929L122.19 68.4H134.613L111.25 29.925L98.0854 51.5138L118.667 85.5H104.946L124.044 119.7ZM27.0708 119.7H106.429L77.6896 68.4H90.1125L66.75 29.925L43.3875 68.4H55.8104L27.0708 119.7ZM27.0708 119.7H55.8104H43.3875H90.1125H77.6896H106.429H27.0708ZM124.044 119.7H104.946H118.667H98.0854H134.613H122.19H150.929H124.044Z" fill="url(#paint0_linear_516_864)"/>
<defs>
<linearGradient id="paint0_linear_516_864" x1="89" y1="0" x2="89" y2="171" gradientUnits="userSpaceOnUse">
<stop stop-color="#A1672A"/>
<stop offset="0.341346" stop-color="#CF9A30"/>
</linearGradient>
</defs>
</svg>
