<svg width="24" height="24" viewBox="0 0 24 24" fill="none" xmlns="http://www.w3.org/2000/svg">
<path d="M3.70234 18.2218C3.46184 18.2218 3.25975 18.1396 3.09609 17.9751C2.93242 17.8106 2.85059 17.6055 2.85059 17.3598C2.85059 17.1181 2.93242 16.9165 3.09609 16.7548C3.25975 16.5933 3.46184 16.5126 3.70234 16.5126H20.2978C20.5383 16.5126 20.7414 16.5948 20.9071 16.7593C21.0728 16.9238 21.1556 17.1269 21.1556 17.3686C21.1556 17.6142 21.0728 17.8178 20.9071 17.9793C20.7414 18.141 20.5383 18.2218 20.2978 18.2218H3.70234ZM3.70234 12.8523C3.46184 12.8523 3.25975 12.77 3.09609 12.6053C2.93242 12.4408 2.85059 12.2377 2.85059 11.9961C2.85059 11.7546 2.93242 11.553 3.09609 11.3913C3.25975 11.2296 3.46184 11.1488 3.70234 11.1488H20.2978C20.5383 11.1488 20.7414 11.2311 20.9071 11.3958C21.0728 11.5603 21.1556 11.7634 21.1556 12.0051C21.1556 12.2466 21.0728 12.4481 20.9071 12.6098C20.7414 12.7715 20.5383 12.8523 20.2978 12.8523H3.70234ZM3.70234 7.48855C3.46184 7.48855 3.25975 7.4063 3.09609 7.2418C2.93242 7.0773 2.85059 6.87221 2.85059 6.62655C2.85059 6.38488 2.93242 6.1833 3.09609 6.0218C3.25975 5.86013 3.46184 5.7793 3.70234 5.7793H20.2978C20.5383 5.7793 20.7414 5.86155 20.9071 6.02605C21.0728 6.19055 21.1556 6.39363 21.1556 6.6353C21.1556 6.88097 21.0728 7.08463 20.9071 7.2463C20.7414 7.4078 20.5383 7.48855 20.2978 7.48855H3.70234Z" fill="white"/>
</svg>
