<svg width="64" height="64" viewBox="0 0 64 64" fill="none" xmlns="http://www.w3.org/2000/svg">
<g clip-path="url(#clip0_545_885)">
<path d="M41.4957 36.1627L37.6557 40.0001L41.4957 43.8374C42.2461 44.5878 42.6676 45.6055 42.6676 46.6667C42.6676 47.7279 42.2461 48.7457 41.4957 49.4961C40.7453 50.2464 39.7275 50.668 38.6663 50.668C37.6051 50.668 36.5874 50.2464 35.837 49.4961L31.9997 45.6561L28.1623 49.4961C27.412 50.2464 26.3942 50.668 25.333 50.668C24.2718 50.668 23.2541 50.2464 22.5037 49.4961C21.7533 48.7457 21.3317 47.7279 21.3317 46.6667C21.3317 45.6055 21.7533 44.5878 22.5037 43.8374L26.3437 40.0001L22.5037 36.1627C21.7533 35.4123 21.3317 34.3946 21.3317 33.3334C21.3317 32.2722 21.7533 31.2544 22.5037 30.5041C23.2541 29.7537 24.2718 29.3321 25.333 29.3321C26.3942 29.3321 27.412 29.7537 28.1623 30.5041L31.9997 34.3441L35.837 30.5041C36.2086 30.1325 36.6497 29.8378 37.1351 29.6367C37.6206 29.4356 38.1409 29.3321 38.6663 29.3321C39.1918 29.3321 39.7121 29.4356 40.1976 29.6367C40.683 29.8378 41.1241 30.1325 41.4957 30.5041C41.8672 30.8756 42.162 31.3167 42.363 31.8022C42.5641 32.2876 42.6676 32.8079 42.6676 33.3334C42.6676 33.8588 42.5641 34.3792 42.363 34.8646C42.162 35.3501 41.8672 35.7912 41.4957 36.1627ZM58.6663 21.7521V49.3334C58.6621 53.2219 57.1155 56.95 54.3659 59.6996C51.6163 62.4492 47.8882 63.9958 43.9997 64.0001H19.9997C16.1111 63.9958 12.3831 62.4492 9.63345 59.6996C6.88384 56.95 5.33724 53.2219 5.33301 49.3334V14.6667C5.33724 10.7782 6.88384 7.05011 9.63345 4.3005C12.3831 1.55088 16.1111 0.00428819 19.9997 5.30695e-05H36.9143C38.8412 -0.00514711 40.7499 0.371868 42.53 1.10928C44.3101 1.84669 45.9263 2.92984 47.285 4.29605L54.3703 11.3814C55.7366 12.7401 56.8197 14.3563 57.5571 16.1364C58.2945 17.9165 58.6715 19.8252 58.6663 21.7521V21.7521ZM50.6663 49.3334V24.0001H39.9997C38.5852 24.0001 37.2286 23.4381 36.2284 22.438C35.2282 21.4378 34.6663 20.0812 34.6663 18.6667V8.00005H19.9997C18.2316 8.00005 16.5359 8.70243 15.2856 9.95267C14.0354 11.2029 13.333 12.8986 13.333 14.6667V49.3334C13.333 51.1015 14.0354 52.7972 15.2856 54.0474C16.5359 55.2977 18.2316 56.0001 19.9997 56.0001H43.9997C45.7678 56.0001 47.4635 55.2977 48.7137 54.0474C49.964 52.7972 50.6663 51.1015 50.6663 49.3334Z" fill="#CF9A30"/>
</g>
<defs>
<clipPath id="clip0_545_885">
<rect width="64" height="64" fill="white"/>
</clipPath>
</defs>
</svg>
