<svg width="64" height="64" viewBox="0 0 64 64" fill="none" xmlns="http://www.w3.org/2000/svg">
<g clip-path="url(#clip0_545_869)">
<path d="M32 0C14.3269 0 0 14.3269 0 32C0 49.6731 14.3269 64 32 64C49.6731 64 64 49.6731 64 32C63.9809 14.3347 49.6653 0.019125 32 0ZM32 56C18.7451 56 8 45.2549 8 32C8 18.7451 18.7451 8 32 8C45.2549 8 56 18.7451 56 32C55.9852 45.2487 45.2487 55.9852 32 56Z" fill="#CF9A30"/>
<path d="M32 40.2428C34.2091 40.2428 36 38.4519 36 36.2428V17.5762C36 15.367 34.2091 13.5762 32 13.5762C29.7909 13.5762 28 15.367 28 17.5762V36.2428C28 38.4519 29.7909 40.2428 32 40.2428Z" fill="#CF9A30"/>
<path d="M32.0137 50.667C34.2228 50.667 36.0137 48.8761 36.0137 46.667C36.0137 44.4579 34.2228 42.667 32.0137 42.667C29.8045 42.667 28.0137 44.4579 28.0137 46.667C28.0137 48.8761 29.8045 50.667 32.0137 50.667Z" fill="#CF9A30"/>
</g>
<defs>
<clipPath id="clip0_545_869">
<rect width="64" height="64" fill="white"/>
</clipPath>
</defs>
</svg>
