<svg width="24" height="24" viewBox="0 0 24 24" fill="none" xmlns="http://www.w3.org/2000/svg">
<g clip-path="url(#clip0_575_874)">
<path d="M12 0C5.37258 0 0 5.37258 0 12C0 18.6274 5.37258 24 12 24C18.6274 24 24 18.6274 24 12C23.9928 5.37553 18.6245 0.00717187 12 0ZM12 21C7.02942 21 3 16.9706 3 12C3 7.02942 7.02942 3 12 3C16.9706 3 21 7.02942 21 12C20.9945 16.9683 16.9683 20.9945 12 21Z" fill="#708E78"/>
<path d="M12 15.0908C12.8284 15.0908 13.5 14.4192 13.5 13.5908V6.59082C13.5 5.7624 12.8284 5.09082 12 5.09082C11.1716 5.09082 10.5 5.7624 10.5 6.59082V13.5908C10.5 14.4192 11.1716 15.0908 12 15.0908Z" fill="#708E78"/>
<path d="M12.0049 19C12.8333 19 13.5049 18.3284 13.5049 17.5C13.5049 16.6716 12.8333 16 12.0049 16C11.1765 16 10.5049 16.6716 10.5049 17.5C10.5049 18.3284 11.1765 19 12.0049 19Z" fill="#708E78"/>
</g>
<defs>
<clipPath id="clip0_575_874">
<rect width="24" height="24" fill="white"/>
</clipPath>
</defs>
</svg>
