<svg width="24" height="24" viewBox="0 0 24 24" fill="none" xmlns="http://www.w3.org/2000/svg">
<g clip-path="url(#clip0_583_896)">
<path d="M18.5 0H10.5C7.467 0 5 2.467 5 5.5V6H4.5C2.019 6 0 8.019 0 10.5V20C0 22.206 1.794 24 4 24H18.5C21.533 24 24 21.533 24 18.5V5.5C24 2.467 21.533 0 18.5 0ZM5 20C5 20.551 4.551 21 4 21C3.449 21 3 20.551 3 20V10.5C3 9.673 3.673 9 4.5 9H5V20ZM21 18.5C21 19.878 19.878 21 18.5 21H7.874C7.957 20.68 8 20.345 8 20V5.5C8 4.122 9.122 3 10.5 3H18.5C19.878 3 21 4.122 21 5.5V18.5ZM19 7.5C19 8.329 18.329 9 17.5 9H15.5C14.671 9 14 8.329 14 7.5C14 6.671 14.671 6 15.5 6H17.5C18.329 6 19 6.671 19 7.5ZM19 12.5C19 13.329 18.329 14 17.5 14H11.5C10.671 14 10 13.329 10 12.5C10 11.671 10.671 11 11.5 11H17.5C18.329 11 19 11.671 19 12.5ZM19 17.5C19 18.329 18.329 19 17.5 19H11.5C10.671 19 10 18.329 10 17.5C10 16.671 10.671 16 11.5 16H17.5C18.329 16 19 16.671 19 17.5ZM10 7.5C10 6.672 10.672 6 11.5 6C12.328 6 13 6.672 13 7.5C13 8.328 12.328 9 11.5 9C10.672 9 10 8.328 10 7.5Z" fill="#708E78"/>
</g>
<defs>
<clipPath id="clip0_583_896">
<rect width="24" height="24" fill="white"/>
</clipPath>
</defs>
</svg>
