<svg width="64" height="64" viewBox="0 0 64 64" fill="none" xmlns="http://www.w3.org/2000/svg">
<g clip-path="url(#clip0_545_888)">
<path d="M54.3994 44.4545L54.3594 44.3985L51.3861 40.2385C51.8825 39.7321 52.3029 39.1563 52.6341 38.5292C53.2764 37.2538 53.5491 35.8242 53.4214 34.402C53.2937 32.9798 52.7707 31.6217 51.9114 30.4812L47.8421 24.9612C48.6734 24.3034 49.3552 23.4762 49.8421 22.5345C50.4753 21.322 50.7561 19.9564 50.6529 18.5924C50.5497 17.2284 50.0665 15.9206 49.2581 14.8172C49.1514 14.6678 37.8661 2.6385 37.8661 2.6385C37.1304 1.82591 36.234 1.1749 35.2337 0.726646C34.2333 0.278396 33.1509 0.0426769 32.0547 0.0344052C30.9586 0.0261335 29.8727 0.24549 28.8657 0.678591C27.8587 1.11169 26.9526 1.74911 26.2047 2.5505C26.2047 2.5505 14.8474 14.6678 14.7381 14.8172C13.9301 15.9208 13.4473 17.2288 13.3446 18.5928C13.2418 19.9567 13.5232 21.3222 14.1567 22.5345C14.6487 23.4835 15.3379 24.3163 16.1781 24.9772L12.1007 30.5772C11.2841 31.6969 10.7952 33.0218 10.6887 34.4036C10.5823 35.7854 10.8625 37.1696 11.4981 38.4012C11.8505 39.0666 12.2998 39.6759 12.8314 40.2092L9.59941 44.4545C8.66092 45.8156 8.11246 47.4074 8.01337 49.0578C7.91428 50.7081 8.26833 52.3541 9.03722 53.8177C9.8061 55.2814 10.9606 56.5069 12.3757 57.3618C13.7908 58.2166 15.4128 58.6683 17.0661 58.6678H27.9994V60.0012C27.9994 61.062 28.4208 62.0795 29.171 62.8296C29.9211 63.5797 30.9385 64.0012 31.9994 64.0012C33.0603 64.0012 34.0777 63.5797 34.8278 62.8296C35.578 62.0795 35.9994 61.062 35.9994 60.0012V58.6678H46.9327C48.586 58.6683 50.208 58.2166 51.6231 57.3618C53.0383 56.5069 54.1927 55.2814 54.9616 53.8177C55.7305 52.3541 56.0845 50.7081 55.9854 49.0578C55.8863 47.4074 55.3379 45.8156 54.3994 44.4545V44.4545ZM47.8794 50.0972C47.7938 50.2737 47.6588 50.4216 47.4907 50.523C47.3227 50.6243 47.1288 50.6746 46.9327 50.6678H17.0661C16.8704 50.6741 16.6771 50.6235 16.5096 50.5222C16.3421 50.4209 16.2075 50.2733 16.1221 50.0972C16.0336 49.9545 15.9836 49.7912 15.9771 49.6234C15.9705 49.4556 16.0076 49.289 16.0847 49.1398L20.9941 42.6678H30.6661C31.7269 42.6678 32.7444 42.2464 33.4945 41.4963C34.2446 40.7461 34.6661 39.7287 34.6661 38.6678C34.6661 37.607 34.2446 36.5896 33.4945 35.8394C32.7444 35.0893 31.7269 34.6678 30.6661 34.6678H19.0207L24.8421 26.6678H27.9994C29.0603 26.6678 30.0777 26.2464 30.8278 25.4963C31.578 24.7461 31.9994 23.7287 31.9994 22.6678C31.9994 21.607 31.578 20.5896 30.8278 19.8394C30.0777 19.0893 29.0603 18.6678 27.9994 18.6678H22.0421L31.9594 8.02783L41.9487 18.6678H41.1914C40.4519 18.6678 39.7269 18.8727 39.0969 19.2599C38.4668 19.6471 37.9565 20.2013 37.6225 20.8611C37.2884 21.5208 37.1439 22.2602 37.2047 22.9972C37.2656 23.7342 37.5296 24.4399 37.9674 25.0358L45.0367 34.6678C44.3285 34.7203 43.6469 34.9603 43.0621 35.3633C42.4773 35.7664 42.0104 36.3178 41.7093 36.961C41.4082 37.6043 41.2838 38.316 41.3488 39.0233C41.4138 39.7305 41.666 40.4077 42.0794 40.9852L47.8154 49.0038C47.928 49.1618 47.993 49.3489 48.0024 49.5427C48.0119 49.7365 47.9655 49.929 47.8687 50.0972H47.8794Z" fill="#CF9A30"/>
</g>
<defs>
<clipPath id="clip0_545_888">
<rect width="64" height="64" fill="white"/>
</clipPath>
</defs>
</svg>
